<?xml version="1.0" encoding="utf-8"?>
<!-- Uploaded to: SVG Repo, www.svgrepo.com, Generator: SVG Repo Mixer Tools -->
<svg width="800px" height="800px" viewBox="0 0 960 960" fill="none" xmlns="http://www.w3.org/2000/svg">
<g clip-path="url(#clip0_1313_6307)">
<path d="M271.751 640.312C226.551 674.53 184.595 709.975 141.287 746.073C129.007 756.337 101.392 754.666 90.0996 741.259C77.5286 726.334 75.8096 704.986 89.9806 691.102C111.719 669.805 134.429 649.452 157.414 629.489C258.379 542.227 287.367 510.493 373.133 638.115C413.844 621.994 446.812 592.006 480.207 564.425C539.971 518.328 588.657 581.479 628.476 622.677C667.109 596.819 693.47 548.154 747.099 556.094C782.972 559.267 806.134 581.2 827.305 606.669C842.707 625.197 857.537 644.205 872.434 663.148C881.444 674.604 882.503 695.198 875.099 707.172C864.795 723.835 846.655 732.344 829.902 728.754C801.237 722.728 773.862 669.842 750.799 648.236C741.367 637.588 738.197 638.282 727.838 647.794C706.294 667.578 684.842 687.435 659.234 702.201C595.249 737.026 569.858 685.53 531.258 642.583C526.328 636.71 522.553 637.537 517.226 642.204C469.333 680.218 414.073 731.262 348.388 722.375C309.525 711.869 295.369 669.664 271.751 640.312Z" fill="#000000"/>
<path d="M614.349 289.701C676.35 248.957 732.513 178.006 806.818 242.538C832.78 268.46 854.401 297.359 872.699 328.541C884.033 347.856 881.977 366.64 861.112 383.619C821.661 411.885 798.917 365.538 778.627 337.2C771.087 327.051 763.286 317.047 754.939 307.559C747.001 298.536 743.216 298.434 733.901 305.656C684.332 339.461 604.153 422.541 553.309 349.323C541.201 331.316 529.795 312.839 517.654 293.92C465.77 335.516 381.552 420.843 318.118 355.412C310.109 345.628 302.723 335.336 295.022 325.301C287.524 315.53 284.444 313.969 274.216 320.828C227.638 351.072 185.16 386.734 142.931 422.649C132.831 430.976 108.829 427.841 97.9923 420.409C78.5643 407.087 79.3102 373.829 97.2592 358.469C122.672 336.723 147.801 314.618 173.814 293.612C233.605 244.906 295.024 197.645 357.805 272.526C364.579 278.782 369.353 295.045 380.534 292.157C413.844 273.908 442.757 250.063 470.815 224.742C534.777 176.901 582.681 237.017 614.349 289.701Z" fill="#000000"/>
</g>
<defs>
<clipPath id="clip0_1313_6307">
<rect width="800.001" height="546" fill="white" transform="translate(80 207)"/>
</clipPath>
</defs>
</svg>