<?xml version="1.0" encoding="utf-8"?>
<!-- Uploaded to: SVG Repo, www.svgrepo.com, Generator: SVG Repo Mixer Tools -->
<svg width="800px" height="800px" viewBox="0 0 960 960" fill="none" xmlns="http://www.w3.org/2000/svg">
<g clip-path="url(#clip0_1313_6309)">
<path d="M468.006 458.921C497.757 339.011 531.035 211.913 623.274 124.131C726.707 24.9741 878.182 105.891 891.333 238.309C901.552 310.569 882.043 384.834 825.715 434.783C822.679 437.749 817.36 438.851 812.873 439.77C774.525 450.841 748.199 405.99 770.992 375.901C818.351 329.799 826.271 250.587 788.891 195.367C765.861 159.051 724.587 152.713 689.907 177.446C617.873 233.073 589.388 328.913 564.372 412.919C533.917 529.976 521.012 650.834 508.74 770.908C504.801 800.499 517.353 842.19 497.627 865.999C478.871 890.01 433.392 881.916 428.45 851.063C425.579 834.943 426.494 818.148 425.766 801.648C423.916 753.884 420.574 706.176 417.104 658.509C406.582 529.899 375.397 403.998 334.413 281.966C314.742 220.794 252.245 139.638 184.785 194.878C121.267 236.403 148.213 331.44 195.393 379.982C216.319 400.202 253.376 413.273 238.67 449.527C186.097 532.334 73.5902 361.01 71.3082 306.722C33.6822 167.109 207.072 31.4171 325.827 129.503C424.502 209.602 433.65 344.664 468.006 458.921Z" fill="#000000"/>
</g>
<defs>
<clipPath id="clip0_1313_6309">
<rect width="828" height="800.002" fill="white" transform="translate(66 80)"/>
</clipPath>
</defs>
</svg>