<?xml version="1.0" encoding="utf-8"?>
<!-- Uploaded to: SVG Repo, www.svgrepo.com, Generator: SVG Repo Mixer Tools -->
<svg width="800px" height="800px" viewBox="0 0 960 960" fill="none" xmlns="http://www.w3.org/2000/svg">
<g clip-path="url(#clip0_1313_6312)">
<path d="M578.572 684.766C568.468 667.19 555.962 651.092 549.341 632.857C515.385 544.107 578.662 438.194 668.74 415.862C759.603 392.32 866.724 447.61 878.505 545.365C899.837 719.801 687.842 760.526 555.245 768.112C423.27 775.284 290.637 767.679 164.198 726.418C129.146 716.119 62.6024 696.65 84.2344 647.967C103.1 611.788 142.896 635.151 171.506 644.602C303.051 684.487 441.829 701.049 578.572 684.766ZM798.921 566.902C796.526 487.844 676.94 469.817 641.486 539.689C612.697 581.498 632.529 634.352 683.857 641.03C694.086 643.115 705.983 640.875 714.785 645.277C730.39 653.082 741.241 644.728 753.222 638.67C779.224 622.933 797.972 599.807 798.921 566.902Z" fill="#000000"/>
<path d="M355.757 271.077C502.475 410.672 311.162 642.844 147.093 530.622C61.8835 476.309 61.1135 354.782 129.398 285.752C232.037 185.564 392.989 187.236 527.388 190.568C593.275 193.302 844.002 221.581 863.252 289.503C867.11 306.891 851.651 332.223 832.498 329.247C824.37 327.984 815.176 327.966 808.492 323.984C777.814 305.703 743.703 297.368 709.927 288.037C595.538 256.965 472.557 257.078 355.757 271.077ZM164.487 404.453C163.041 443.452 196.542 470.499 231.206 476.463C283.178 482.191 332.263 429.116 325.039 377.761C316.714 327.716 265.181 317.272 220.673 314.842C184.459 329.405 166.219 366.514 164.487 404.453Z" fill="#000000"/>
</g>
<defs>
<clipPath id="clip0_1313_6312">
<rect width="800" height="582" fill="white" transform="translate(80 189)"/>
</clipPath>
</defs>
</svg>