<?xml version="1.0" standalone="no"?>
<!DOCTYPE svg PUBLIC "-//W3C//DTD SVG 20010904//EN"
 "http://www.w3.org/TR/2001/REC-SVG-20010904/DTD/svg10.dtd">
<svg version="1.0" xmlns="http://www.w3.org/2000/svg"
 width="2047.000000pt" height="2047.000000pt" viewBox="0 0 2047.000000 2047.000000"
 preserveAspectRatio="xMidYMid meet">

<g transform="translate(0.000000,2047.000000) scale(0.100000,-0.100000)"
fill="#FFFFFF" stroke="none">
<path d="M5 10235 c0 -5632 1 -7935 2 -5117 2 2818 2 7426 0 10240 -1 2814 -2
509 -2 -5123z"/>
<path d="M4395 18964 c-11 -3 -58 -13 -105 -24 -77 -18 -197 -39 -425 -75
-110 -17 -147 -28 -278 -84 -165 -69 -264 -142 -468 -343 -75 -73 -169 -172
-209 -218 -39 -47 -107 -120 -150 -162 -43 -43 -124 -143 -181 -224 -153 -216
-218 -305 -276 -381 -29 -37 -67 -94 -85 -127 -18 -32 -65 -107 -105 -166 -39
-59 -82 -130 -95 -157 -13 -27 -41 -76 -61 -108 -50 -82 -150 -340 -177 -455
-12 -52 -40 -150 -62 -218 -21 -67 -45 -150 -53 -185 -8 -34 -24 -93 -35 -132
-28 -90 -40 -297 -47 -750 -5 -360 3 -466 47 -630 10 -38 24 -99 30 -135 38
-213 169 -505 322 -721 162 -230 208 -288 326 -405 140 -141 176 -170 292
-234 52 -29 113 -67 135 -85 60 -48 271 -168 440 -249 50 -23 115 -59 145 -78
70 -44 176 -98 309 -154 57 -25 154 -70 216 -102 62 -31 191 -95 288 -142 97
-47 176 -87 176 -90 1 -7 -109 -72 -194 -115 -33 -17 -89 -49 -125 -71 -36
-22 -81 -46 -100 -53 -19 -8 -111 -51 -205 -96 -93 -45 -195 -87 -225 -94 -30
-6 -116 -33 -190 -60 -74 -27 -164 -60 -199 -72 -127 -45 -269 -158 -354 -284
-110 -161 -153 -386 -112 -580 13 -60 15 -273 15 -1488 0 -1253 2 -1427 16
-1495 60 -294 289 -525 579 -585 90 -18 122 -35 209 -111 39 -33 86 -72 103
-86 l32 -25 11 -1375 c12 -1484 11 -1458 66 -1593 26 -65 70 -137 118 -197 17
-21 49 -61 71 -89 22 -29 72 -78 110 -109 99 -79 161 -139 206 -198 21 -29 62
-78 92 -110 88 -97 194 -263 223 -351 14 -43 36 -98 49 -123 14 -25 34 -70 45
-100 56 -147 248 -427 395 -575 33 -34 96 -99 140 -146 45 -46 108 -102 140
-123 33 -22 92 -65 130 -96 39 -31 102 -76 140 -100 99 -61 178 -128 205 -175
110 -192 146 -273 225 -510 20 -60 60 -166 89 -235 88 -209 140 -351 187 -510
10 -35 31 -95 45 -132 l26 -68 7099 0 7099 0 0 9201 0 9201 -22 -6 c-13 -4
-54 -13 -93 -20 -302 -58 -516 -108 -580 -136 -27 -13 -88 -37 -134 -56 -47
-18 -107 -49 -136 -67 -28 -19 -70 -44 -93 -56 -23 -12 -76 -43 -116 -69 -90
-57 -161 -98 -281 -164 -49 -28 -142 -84 -205 -125 -63 -41 -205 -134 -315
-205 -110 -72 -213 -143 -230 -159 -16 -15 -64 -43 -105 -62 -411 -189 -461
-210 -635 -267 -88 -29 -217 -74 -287 -101 -70 -27 -133 -49 -139 -49 -7 0
-80 -27 -163 -59 -240 -94 -316 -120 -396 -137 -41 -8 -106 -23 -145 -34 -118
-31 -237 -58 -290 -65 -27 -3 -90 -17 -140 -30 -49 -13 -126 -29 -170 -35 -91
-13 -262 -54 -313 -76 -19 -7 -78 -21 -131 -29 -190 -30 -258 -43 -356 -68
-55 -14 -122 -29 -150 -32 -27 -3 -84 -15 -125 -25 -41 -10 -115 -26 -164 -35
-48 -8 -115 -27 -148 -40 -33 -14 -88 -29 -122 -36 -33 -6 -92 -21 -131 -34
-103 -34 -203 -62 -265 -76 -30 -6 -82 -22 -115 -35 -33 -13 -100 -35 -150
-49 -49 -15 -128 -44 -174 -66 -50 -24 -122 -49 -180 -61 -53 -11 -132 -34
-176 -53 -44 -18 -108 -43 -142 -55 -35 -12 -82 -34 -105 -49 -45 -28 -135
-73 -230 -114 -31 -14 -83 -43 -115 -65 -34 -23 -101 -54 -157 -73 -53 -17
-125 -49 -159 -70 -35 -20 -90 -46 -122 -57 -72 -23 -242 -95 -305 -128 -25
-13 -85 -39 -134 -58 -49 -20 -117 -53 -150 -74 -201 -128 -468 -243 -966
-417 -114 -39 -261 -104 -390 -172 -106 -55 -177 -84 -265 -109 -33 -9 -91
-31 -130 -49 -112 -52 -232 -103 -355 -151 -63 -25 -138 -59 -166 -76 -49 -29
-285 -128 -292 -123 -2 2 19 61 48 132 51 128 93 274 105 368 4 28 27 131 52
230 25 103 47 214 49 260 3 44 14 114 24 155 10 41 26 125 35 185 9 61 21 130
27 155 19 87 30 258 35 554 4 250 2 311 -12 380 -63 310 -298 562 -585 626
-53 12 -57 15 -105 88 -27 41 -80 124 -117 184 -37 60 -84 132 -104 161 -55
75 -260 315 -308 360 -42 39 -231 175 -359 259 -174 113 -244 157 -277 174
-19 9 -61 35 -93 56 -32 22 -83 51 -114 64 -30 14 -83 43 -117 66 -62 43 -200
105 -361 162 -49 18 -108 42 -131 54 -22 11 -69 30 -105 42 -35 12 -113 41
-174 65 -60 24 -144 50 -185 59 -41 9 -97 22 -123 31 -26 8 -76 19 -110 25
-34 6 -96 19 -137 30 -41 10 -97 22 -125 26 -27 3 -83 15 -124 26 -41 11 -124
25 -185 30 -111 10 -903 20 -941 12z"/>
</g>
<g transform="translate(0.000000,2047.000000) scale(0.100000,-0.100000)"
fill="#AE1C28" stroke="none">
<path d="M540 16300 l0 -490 3905 0 3905 0 0 490 0 490 -3905 0 -3905 0 0
-490z"/>
</g>
<g transform="translate(0.000000,2047.000000) scale(0.100000,-0.100000)"
fill="#21468B" stroke="none">
<path d="M2200 14325 l0 -495 3570 0 3570 0 0 495 0 495 -3570 0 -3570 0 0
-495z"/>
</g>
<g transform="translate(0.000000,2047.000000) scale(0.100000,-0.100000)"
fill="#FFFFFF" stroke="none">
<path d="M5150 18155 c-160 -34 -281 -53 -377 -59 -46 -3 -122 -14 -170 -25
-71 -16 -142 -21 -372 -25 -270 -6 -292 -8 -415 -37 -321 -73 -509 -173 -696
-366 -163 -168 -429 -601 -540 -878 -26 -66 -75 -183 -107 -260 -68 -159 -182
-458 -211 -555 -11 -36 -27 -114 -37 -175 -9 -60 -21 -130 -27 -155 -5 -25
-12 -166 -15 -315 -5 -322 -10 -298 138 -720 15 -44 35 -120 44 -169 12 -67
37 -138 100 -280 49 -112 88 -218 95 -256 12 -66 96 -261 154 -360 18 -30 48
-82 67 -115 40 -70 201 -234 297 -302 111 -79 153 -112 234 -181 96 -83 272
-192 443 -276 227 -111 369 -156 555 -176 122 -13 203 -26 368 -57 120 -22
151 -24 320 -20 169 4 317 19 457 46 28 5 113 15 190 21 135 12 290 45 428 91
232 78 652 278 812 386 100 68 408 366 534 517 41 49 95 103 120 120 163 112
230 227 311 538 52 200 91 307 142 393 58 97 120 222 143 286 14 42 19 92 23
231 3 159 2 184 -18 260 -35 128 -35 150 0 288 28 110 33 146 37 300 4 139 2
194 -12 265 -32 170 -124 332 -274 479 -152 148 -203 214 -314 396 -63 103
-125 177 -314 370 -89 91 -174 181 -189 200 -52 67 -99 112 -158 152 -61 42
-223 113 -285 124 -20 4 -54 15 -76 24 -22 10 -64 22 -92 28 -28 6 -98 30
-154 53 -57 23 -135 50 -174 60 -38 11 -104 33 -145 49 -141 54 -245 90 -290
100 -25 5 -133 9 -240 9 -166 0 -212 -4 -310 -24z m396 -999 c32 -13 111 -41
174 -61 63 -20 167 -56 230 -80 63 -24 140 -51 170 -60 30 -9 81 -26 113 -36
31 -10 63 -19 71 -19 17 0 294 -272 361 -354 26 -33 68 -93 93 -135 24 -42 61
-98 81 -126 21 -27 50 -68 66 -90 16 -22 85 -97 153 -167 l123 -126 -33 -134
c-33 -131 -33 -136 -33 -363 0 -195 3 -238 18 -284 l18 -53 -41 -68 c-48 -80
-122 -243 -145 -322 -9 -31 -23 -62 -32 -70 -35 -28 -93 -133 -143 -258 -29
-71 -64 -145 -79 -164 -75 -98 -151 -183 -263 -293 -121 -119 -125 -122 -274
-197 -326 -163 -489 -220 -677 -237 -99 -8 -182 -19 -454 -59 -50 -8 -90 -8
-130 -1 -209 36 -362 59 -448 67 -145 14 -395 136 -562 276 -48 40 -123 98
-167 128 -57 39 -92 71 -117 110 -35 53 -45 78 -103 268 -14 45 -43 120 -65
165 -62 131 -99 227 -116 302 -16 73 -23 96 -105 341 -54 164 -60 219 -40 354
6 36 15 103 21 150 6 47 21 112 34 145 63 163 168 429 199 500 18 44 50 121
71 170 44 107 125 261 170 324 18 25 40 60 48 77 13 25 24 33 59 38 24 4 79
24 123 45 117 57 315 138 355 146 19 4 54 16 78 26 36 16 70 19 195 19 119 0
171 5 237 21 47 11 128 24 180 29 101 9 285 39 385 64 87 21 134 19 201 -8z"/>
</g>
<g transform="translate(0.000000,2047.000000) scale(0.100000,-0.100000)"
fill="#582C83" stroke="none">
<path d="M10 10235 l0 -10235 3600 0 c1980 0 3600 2 3600 4 0 3 -79 211 -176
463 -97 252 -234 611 -306 798 -71 187 -145 378 -163 425 -18 47 -104 270
-190 495 -86 226 -201 525 -255 665 -54 140 -191 498 -305 795 -114 297 -251
655 -305 795 -54 140 -169 440 -255 665 -86 226 -235 613 -330 860 -211 551
-543 1414 -700 1825 -64 168 -139 361 -165 430 -84 219 -652 1699 -815 2125
-86 226 -173 450 -192 499 -19 49 -31 92 -26 96 4 5 193 79 418 165 226 87
671 258 990 380 319 123 1028 395 1575 605 547 210 1033 397 1080 415 47 18
474 182 950 365 476 183 1185 455 1575 605 391 150 1070 411 1510 580 440 169
1003 385 1250 480 248 95 839 322 1315 505 476 183 1185 455 1575 605 391 150
1099 422 1575 605 476 183 903 347 950 365 47 18 328 126 625 240 297 114 590
226 650 250 61 23 401 154 758 291 l647 248 0 1413 0 1413 -10230 0 -10230 0
0 -10235z m5190 7713 l45 -133 138 0 c75 0 137 -3 137 -7 0 -5 -157 -122 -213
-159 -5 -4 8 -59 33 -133 23 -69 40 -130 38 -135 -2 -5 -52 27 -112 70 -59 44
-111 79 -115 79 -3 0 -55 -36 -116 -79 -60 -44 -111 -78 -113 -76 -2 2 15 61
37 131 23 71 41 131 41 134 0 3 -49 41 -110 85 -60 43 -110 81 -110 84 0 3 60
5 133 3 102 -3 136 0 144 10 6 7 28 68 49 136 21 67 40 122 43 122 4 0 26 -60
51 -132z m-1237 -314 l42 -129 145 -5 145 -5 -89 -65 c-49 -36 -101 -75 -115
-86 l-25 -22 38 -122 c21 -68 41 -130 44 -139 5 -14 -29 9 -173 113 l-60 44
-114 -84 c-63 -46 -116 -82 -118 -81 -1 2 17 64 41 137 25 74 41 137 37 140
-52 35 -212 154 -217 161 -3 5 55 9 138 9 l144 0 42 136 c24 75 46 134 48 131
3 -2 24 -62 47 -133z m2483 -11 l37 -123 144 0 c79 0 143 -3 143 -7 0 -5 -29
-28 -63 -53 -34 -24 -85 -61 -113 -81 l-51 -38 43 -132 c24 -73 42 -134 40
-136 -2 -2 -53 32 -113 76 -61 45 -113 81 -117 81 -3 0 -56 -36 -117 -81 -61
-44 -113 -78 -115 -76 -2 2 16 63 40 135 l45 132 -72 53 c-40 29 -91 66 -114
82 -24 17 -43 34 -43 38 0 4 64 7 142 6 l142 -1 44 132 c24 72 48 128 52 123
5 -4 25 -63 46 -130z m-3389 -860 l40 -128 141 -3 c78 -1 142 -7 142 -11 0 -7
-117 -96 -213 -162 -5 -4 10 -64 32 -134 23 -70 40 -132 39 -137 -2 -4 -52 28
-113 72 -60 44 -112 80 -115 80 -3 0 -54 -36 -115 -80 -60 -43 -111 -75 -113
-70 -2 5 15 66 38 135 23 69 40 128 39 129 -2 2 -52 38 -111 80 -60 43 -108
82 -108 87 0 5 59 9 139 9 l139 0 10 28 c6 15 25 73 43 130 18 56 36 102 39
102 4 0 24 -57 47 -127z m4293 -35 l33 -107 145 -3 144 -3 -115 -83 -116 -83
14 -47 c8 -26 28 -87 44 -135 22 -64 26 -87 16 -84 -7 3 -56 37 -107 74 -51
38 -98 72 -105 76 -7 5 -57 -25 -123 -74 -61 -45 -113 -80 -115 -77 -2 2 14
59 35 127 22 68 40 128 40 135 0 6 -51 47 -113 91 l-112 80 144 5 144 5 38
119 c52 164 48 156 63 121 7 -16 27 -78 46 -137z m-1910 37 c294 -64 547 -202
755 -410 128 -128 214 -249 290 -408 103 -215 145 -399 145 -637 0 -238 -42
-422 -145 -637 -76 -159 -162 -280 -290 -408 -211 -211 -465 -348 -765 -412
-121 -26 -439 -26 -560 0 -300 64 -554 201 -765 412 -211 211 -348 465 -412
765 -26 123 -26 439 1 565 61 291 201 550 411 760 227 227 500 367 820 421
107 18 412 11 515 -11z m-2716 -1191 l43 -129 141 -3 c78 -1 142 -6 142 -10 0
-4 -50 -42 -110 -85 -61 -44 -110 -84 -110 -90 0 -5 18 -66 41 -135 22 -68 38
-126 36 -128 -2 -2 -52 32 -112 76 -59 44 -113 80 -118 80 -5 0 -59 -36 -119
-81 -61 -44 -111 -79 -113 -77 -2 2 16 64 41 138 24 74 40 137 35 140 -50 33
-212 154 -217 161 -3 5 55 9 138 9 l144 0 44 135 c24 74 45 133 47 131 2 -2
23 -61 47 -132z m4946 -6 l41 -127 142 -3 142 -3 -110 -79 c-61 -44 -112 -81
-114 -83 -3 -2 14 -62 38 -134 23 -73 40 -133 37 -136 -2 -2 -54 32 -115 77
-71 52 -115 79 -123 74 -7 -5 -58 -41 -112 -81 -55 -40 -103 -73 -107 -73 -4
0 12 60 37 133 l45 132 -24 20 c-13 11 -66 50 -117 88 l-94 67 145 0 145 0 44
135 c24 74 47 132 51 127 4 -4 26 -64 49 -134z m-4613 -1185 l40 -128 142 -3
c77 -1 141 -6 141 -10 0 -4 -48 -41 -106 -82 -58 -41 -108 -78 -110 -82 -3 -4
13 -65 36 -136 22 -70 40 -131 40 -135 0 -4 -52 31 -116 77 l-116 85 -114 -85
c-63 -46 -114 -79 -114 -72 0 7 18 69 40 138 38 118 39 126 23 138 -10 7 -63
46 -118 85 l-99 72 146 3 147 3 41 129 c23 72 45 130 49 130 4 0 26 -57 48
-127z m4289 -15 l37 -118 144 0 c78 0 143 -3 143 -8 0 -4 -10 -13 -22 -21 -13
-8 -64 -45 -115 -82 l-92 -68 44 -132 c25 -73 43 -134 41 -136 -2 -2 -54 33
-115 78 -61 44 -117 79 -123 76 -7 -3 -60 -39 -117 -81 -58 -41 -106 -74 -108
-73 -1 2 15 59 37 128 22 68 40 129 40 136 0 7 -49 47 -110 90 -60 43 -110 81
-110 86 0 4 64 7 143 7 l142 0 34 108 c48 155 50 159 61 142 5 -8 26 -68 46
-132z m-915 -853 l43 -135 143 0 c79 0 143 -3 143 -7 0 -5 -19 -21 -43 -38
-23 -16 -74 -53 -113 -81 l-71 -53 43 -132 c24 -73 42 -135 40 -137 -2 -2 -53
33 -113 77 -61 45 -114 81 -118 81 -4 0 -57 -36 -118 -81 -60 -44 -111 -78
-113 -76 -2 2 16 63 41 136 l44 132 -93 68 c-51 38 -103 75 -115 82 -11 8 -21
17 -21 21 0 5 64 8 143 8 l144 0 42 135 c24 74 44 135 46 135 2 0 23 -61 46
-135z m-2466 -12 l38 -123 144 0 c78 0 143 -3 143 -8 0 -4 -10 -13 -22 -21
-13 -8 -64 -45 -115 -82 l-92 -68 44 -132 c25 -73 43 -134 41 -136 -1 -2 -52
33 -112 77 -60 44 -114 80 -119 80 -6 0 -59 -36 -119 -80 -60 -44 -111 -79
-112 -77 -2 2 16 63 40 136 l43 133 -92 68 c-51 37 -102 74 -114 81 -11 8 -21
17 -21 21 0 5 64 8 143 8 l142 0 34 108 c45 144 50 157 60 146 5 -5 26 -64 46
-131z m1416 -443 c77 0 139 -3 139 -7 -1 -5 -51 -43 -111 -87 -70 -50 -108
-83 -105 -92 21 -54 77 -247 73 -251 -3 -2 -55 32 -116 77 l-110 81 -111 -81
c-62 -45 -114 -79 -117 -76 -3 2 14 62 37 132 l43 128 -25 20 c-13 12 -65 50
-114 86 l-89 65 142 3 142 3 42 127 c23 70 44 132 48 137 3 6 25 -52 49 -127
l44 -138 139 0z"/>
<path d="M5600 10051 c0 -8 111 -332 195 -571 237 -670 366 -1018 592 -1600
352 -905 791 -1940 1123 -2646 26 -56 60 -129 75 -163 l28 -61 544 2 545 3 65
140 c149 322 393 864 473 1055 15 36 70 166 122 290 433 1028 823 2045 1249
3260 49 140 94 265 99 278 l10 22 -604 0 -604 0 -98 -292 c-373 -1124 -944
-2720 -1149 -3213 -37 -88 -69 -168 -72 -177 -8 -25 -18 -22 -33 10 -82 177
-209 503 -357 917 -41 116 -115 323 -165 460 -49 138 -114 320 -145 405 -30
85 -83 236 -119 335 -111 314 -198 567 -366 1067 l-163 488 -622 0 c-369 0
-623 -4 -623 -9z"/>
<path d="M14515 9975 c-286 -47 -523 -84 -527 -85 -5 0 -8 -1098 -8 -2440 l0
-2440 545 0 545 0 0 2525 c0 2398 -1 2525 -17 2524 -10 0 -252 -38 -538 -84z"/>
<path d="M15965 9975 c-286 -46 -524 -84 -528 -84 -4 -1 -6 -819 -4 -1818 3
-1972 1 -1868 57 -2136 60 -281 172 -494 348 -659 174 -164 408 -273 687 -323
243 -42 653 -40 901 5 165 29 525 137 539 161 3 4 -8 78 -24 166 -17 87 -41
221 -55 298 -46 256 -67 369 -69 372 -2 1 -43 -11 -93 -27 -199 -64 -440 -96
-653 -87 -305 13 -434 110 -514 387 -42 146 -47 245 -47 1000 l0 710 500 0
500 0 0 450 0 450 -497 2 -498 3 -3 608 c-2 476 -5 607 -15 606 -6 0 -246 -38
-532 -84z"/>
<path d="M11410 8820 c-143 -22 -257 -51 -380 -97 -232 -86 -501 -246 -526
-313 -184 -487 -452 -1166 -609 -1545 -36 -88 -80 -195 -98 -239 l-31 -78 18
-87 c26 -130 90 -312 155 -446 265 -542 756 -929 1342 -1059 967 -214 1943
324 2277 1254 92 257 126 501 110 797 -46 845 -674 1589 -1506 1783 -232 54
-525 66 -752 30z m553 -999 c281 -75 514 -270 638 -535 70 -150 84 -218 83
-411 0 -142 -4 -183 -22 -248 -114 -412 -472 -703 -892 -724 -66 -3 -149 0
-195 6 -110 16 -260 69 -357 127 -172 103 -340 299 -408 475 -224 578 113
1197 720 1325 97 20 333 12 433 -15z"/>
</g>
</svg>
